<svg xmlns="http://www.w3.org/2000/svg" xmlns:xlink="http://www.w3.org/1999/xlink" contentStyleType="text/css" data-diagram-type="STATE" height="1537px" preserveAspectRatio="none" style="width:1298px;height:1537px;background:#FFFFFF;" version="1.1" viewBox="0 0 1298 1537" width="1298px" zoomAndPan="magnify"><?plantuml 1.2026.3beta6?><defs/><g><g class="title" data-source-line="1"><text fill="#000000" font-family="sans-serif" font-size="14" font-weight="700" lengthAdjust="spacing" textLength="318.5752" x="486.2124" y="22.9951">Ticket Vending Machine - State Diagram</text></g><g class="entity" data-qualified-name="Idle" id="ent0002"><rect fill="#F1F1F1" height="50" rx="12.5" ry="12.5" style="stroke:#181818;stroke-width:0.5;" width="50" x="1056" y="124.2969"/><line style="stroke:#181818;stroke-width:0.5;" x1="1056" x2="1106" y1="150.5938" y2="150.5938"/><text fill="#000000" font-family="sans-serif" font-size="14" lengthAdjust="spacing" textLength="25.5186" x="1068.2407" y="142.292">Idle</text></g><g class="entity" data-qualified-name="StartTransaction" id="ent0003"><rect fill="#F1F1F1" height="50" rx="12.5" ry="12.5" style="stroke:#181818;stroke-width:0.5;" width="136.3477" x="630.83" y="251.2969"/><line style="stroke:#181818;stroke-width:0.5;" x1="630.83" x2="767.1777" y1="277.5938" y2="277.5938"/><text fill="#000000" font-family="sans-serif" font-size="14" lengthAdjust="spacing" textLength="116.3477" x="640.83" y="269.292">StartTransaction</text></g><g class="entity" data-qualified-name="ChoosingTransportation" id="ent0004"><rect fill="#F1F1F1" height="50" rx="12.5" ry="12.5" style="stroke:#181818;stroke-width:0.5;" width="187.8701" x="139.06" y="362.2969"/><line style="stroke:#181818;stroke-width:0.5;" x1="139.06" x2="326.9301" y1="388.5938" y2="388.5938"/><text fill="#000000" font-family="sans-serif" font-size="14" lengthAdjust="spacing" textLength="167.8701" x="149.06" y="380.292">ChoosingTransportation</text></g><g class="entity" data-qualified-name="SelectDestination" id="ent0005"><rect fill="#F1F1F1" height="50" rx="12.5" ry="12.5" style="stroke:#181818;stroke-width:0.5;" width="143.5254" x="161.24" y="489.2969"/><line style="stroke:#181818;stroke-width:0.5;" x1="161.24" x2="304.7654" y1="515.5938" y2="515.5938"/><text fill="#000000" font-family="sans-serif" font-size="14" lengthAdjust="spacing" textLength="123.5254" x="171.24" y="507.292">SelectDestination</text></g><g class="entity" data-qualified-name="SelectPaymentMethod" id="ent0006"><rect fill="#F1F1F1" height="50" rx="12.5" ry="12.5" style="stroke:#181818;stroke-width:0.5;" width="177.6162" x="309.19" y="616.2969"/><line style="stroke:#181818;stroke-width:0.5;" x1="309.19" x2="486.8062" y1="642.5938" y2="642.5938"/><text fill="#000000" font-family="sans-serif" font-size="14" lengthAdjust="spacing" textLength="157.6162" x="319.19" y="634.292">SelectPaymentMethod</text></g><g class="entity" data-qualified-name="PayByCreditCard" id="ent0007"><rect fill="#F1F1F1" height="50" rx="12.5" ry="12.5" style="stroke:#181818;stroke-width:0.5;" width="138.6035" x="456.7" y="743.2969"/><line style="stroke:#181818;stroke-width:0.5;" x1="456.7" x2="595.3035" y1="769.5938" y2="769.5938"/><text fill="#000000" font-family="sans-serif" font-size="14" lengthAdjust="spacing" textLength="118.6035" x="466.7" y="761.292">PayByCreditCard</text></g><g class="entity" data-qualified-name="Verification" id="ent0008"><rect fill="#F1F1F1" height="50" rx="12.5" ry="12.5" style="stroke:#181818;stroke-width:0.5;" width="99.748" x="483.13" y="870.2969"/><line style="stroke:#181818;stroke-width:0.5;" x1="483.13" x2="582.878" y1="896.5938" y2="896.5938"/><text fill="#000000" font-family="sans-serif" font-size="14" lengthAdjust="spacing" textLength="79.748" x="493.13" y="888.292">Verification</text></g><g class="entity" data-qualified-name="PayByQRWallet" id="ent0009"><rect fill="#F1F1F1" height="50" rx="12.5" ry="12.5" style="stroke:#181818;stroke-width:0.5;" width="128.2471" x="643.88" y="743.2969"/><line style="stroke:#181818;stroke-width:0.5;" x1="643.88" x2="772.1271" y1="769.5938" y2="769.5938"/><text fill="#000000" font-family="sans-serif" font-size="14" lengthAdjust="spacing" textLength="108.2471" x="653.88" y="761.292">PayByQRWallet</text></g><g class="entity" data-qualified-name="DisplayQRCode" id="ent0010"><rect fill="#F1F1F1" height="50" rx="12.5" ry="12.5" style="stroke:#181818;stroke-width:0.5;" width="128.1924" x="684.9" y="870.2969"/><line style="stroke:#181818;stroke-width:0.5;" x1="684.9" x2="813.0924" y1="896.5938" y2="896.5938"/><text fill="#000000" font-family="sans-serif" font-size="14" lengthAdjust="spacing" textLength="108.1924" x="694.9" y="888.292">DisplayQRCode</text></g><g class="entity" data-qualified-name="PaymentFailed" id="ent0011"><rect fill="#F1F1F1" height="50" rx="12.5" ry="12.5" style="stroke:#181818;stroke-width:0.5;" width="123.8311" x="357.08" y="997.2969"/><line style="stroke:#181818;stroke-width:0.5;" x1="357.08" x2="480.9111" y1="1023.5938" y2="1023.5938"/><text fill="#000000" font-family="sans-serif" font-size="14" lengthAdjust="spacing" textLength="103.8311" x="367.08" y="1015.292">PaymentFailed</text></g><g class="entity" data-qualified-name="ChoosingTicketType" id="ent0012"><rect fill="#F1F1F1" height="50" rx="12.5" ry="12.5" style="stroke:#181818;stroke-width:0.5;" width="161.4082" x="844.3" y="997.2969"/><line style="stroke:#181818;stroke-width:0.5;" x1="844.3" x2="1005.7082" y1="1023.5938" y2="1023.5938"/><text fill="#000000" font-family="sans-serif" font-size="14" lengthAdjust="spacing" textLength="141.4082" x="854.3" y="1015.292">ChoosingTicketType</text></g><g class="entity" data-qualified-name="OnlineTicket" id="ent0013"><rect fill="#F1F1F1" height="50" rx="12.5" ry="12.5" style="stroke:#181818;stroke-width:0.5;" width="107.5068" x="1049.25" y="1124.2969"/><line style="stroke:#181818;stroke-width:0.5;" x1="1049.25" x2="1156.7568" y1="1150.5938" y2="1150.5938"/><text fill="#000000" font-family="sans-serif" font-size="14" lengthAdjust="spacing" textLength="87.5068" x="1059.25" y="1142.292">OnlineTicket</text></g><g class="entity" data-qualified-name="PaperTicket" id="ent0014"><rect fill="#F1F1F1" height="50" rx="12.5" ry="12.5" style="stroke:#181818;stroke-width:0.5;" width="102.626" x="892.69" y="1124.2969"/><line style="stroke:#181818;stroke-width:0.5;" x1="892.69" x2="995.316" y1="1150.5938" y2="1150.5938"/><text fill="#000000" font-family="sans-serif" font-size="14" lengthAdjust="spacing" textLength="82.626" x="902.69" y="1142.292">PaperTicket</text></g><g class="entity" data-qualified-name="CompleteTransaction" id="ent0015"><rect fill="#F1F1F1" height="50" rx="12.5" ry="12.5" style="stroke:#181818;stroke-width:0.5;" width="169.6182" x="977.19" y="1235.2969"/><line style="stroke:#181818;stroke-width:0.5;" x1="977.19" x2="1146.8082" y1="1261.5938" y2="1261.5938"/><text fill="#000000" font-family="sans-serif" font-size="14" lengthAdjust="spacing" textLength="149.6182" x="987.19" y="1253.292">CompleteTransaction</text></g><g class="entity" data-qualified-name="PrintTicket" id="ent0016"><rect fill="#F1F1F1" height="50" rx="12.5" ry="12.5" style="stroke:#181818;stroke-width:0.5;" width="94.7988" x="1114.6" y="1362.2969"/><line style="stroke:#181818;stroke-width:0.5;" x1="1114.6" x2="1209.3988" y1="1388.5938" y2="1388.5938"/><text fill="#000000" font-family="sans-serif" font-size="14" lengthAdjust="spacing" textLength="74.7988" x="1124.6" y="1380.292">PrintTicket</text></g><g class="entity" data-qualified-name="SendETicket" id="ent0017"><rect fill="#F1F1F1" height="50" rx="12.5" ry="12.5" style="stroke:#181818;stroke-width:0.5;" width="106.4541" x="970.77" y="1362.2969"/><line style="stroke:#181818;stroke-width:0.5;" x1="970.77" x2="1077.2241" y1="1388.5938" y2="1388.5938"/><text fill="#000000" font-family="sans-serif" font-size="14" lengthAdjust="spacing" textLength="86.4541" x="980.77" y="1380.292">SendETicket</text></g><g class="entity" data-qualified-name="Finish" id="ent0018"><rect fill="#F1F1F1" height="50" rx="12.5" ry="12.5" style="stroke:#181818;stroke-width:0.5;" width="60.8721" x="1131.56" y="1473.2969"/><line style="stroke:#181818;stroke-width:0.5;" x1="1131.56" x2="1192.4321" y1="1499.5938" y2="1499.5938"/><text fill="#000000" font-family="sans-serif" font-size="14" lengthAdjust="spacing" textLength="40.8721" x="1141.56" y="1491.292">Finish</text></g><g class="entity" data-qualified-name="CancelTransaction" id="ent0019"><rect fill="#F1F1F1" height="50" rx="12.5" ry="12.5" style="stroke:#181818;stroke-width:0.5;" width="149.5752" x="171.21" y="1124.2969"/><line style="stroke:#181818;stroke-width:0.5;" x1="171.21" x2="320.7852" y1="1150.5938" y2="1150.5938"/><text fill="#000000" font-family="sans-serif" font-size="14" lengthAdjust="spacing" textLength="129.5752" x="181.21" y="1142.292">CancelTransaction</text></g><g class="start_entity" data-qualified-name=".start." data-source-line="3" id="ent0002"><ellipse cx="1081" cy="53.2969" fill="#222222" rx="10" ry="10" style="stroke:#222222;stroke-width:1;"/></g><!--link *start* to Idle--><g class="link" data-entity-1="ent0002" data-entity-2="ent0002" data-link-type="dependency" data-source-line="3" id="lnk3"><path d="M1081,63.6569 C1081,77.5869 1081,98.2469 1081,117.9469" fill="none" id="*start*-to-Idle" style="stroke:#181818;stroke-width:1;"/><polygon fill="#181818" points="1081,123.9469,1085,114.9469,1081,118.9469,1077,114.9469,1081,123.9469" style="stroke:#181818;stroke-width:1;"/></g><!--link Idle to StartTransaction--><g class="link" data-entity-1="ent0002" data-entity-2="ent0003" data-link-type="dependency" data-source-line="8" id="lnk4"><path d="M1055.71,157.1469 C1019.95,166.9469 952.63,185.8469 896,204.2969 C851.41,218.8269 807.3661,234.652 769.0461,248.852" fill="none" id="Idle-to-StartTransaction" style="stroke:#181818;stroke-width:1;"/><polygon fill="#181818" points="763.42,250.9369,773.2491,251.5604,768.1084,249.1995,770.4693,244.0589,763.42,250.9369" style="stroke:#181818;stroke-width:1;"/><text fill="#000000" font-family="sans-serif" font-size="13" lengthAdjust="spacing" textLength="157.1172" x="897" y="217.3638">Passenger presses Start</text></g><!--link StartTransaction to ChoosingTransportation--><g class="link" data-entity-1="ent0003" data-entity-2="ent0004" data-link-type="dependency" data-source-line="13" id="lnk5"><path d="M630.74,293.2669 C550.6,312.0069 423.0724,341.8406 333.1024,362.8806" fill="none" id="StartTransaction-to-ChoosingTransportation" style="stroke:#181818;stroke-width:1;"/><polygon fill="#181818" points="327.26,364.2469,336.9344,366.0924,332.1286,363.1083,335.1127,358.3026,327.26,364.2469" style="stroke:#181818;stroke-width:1;"/></g><!--link ChoosingTransportation to SelectDestination--><g class="link" data-entity-1="ent0004" data-entity-2="ent0005" data-link-type="dependency" data-source-line="18" id="lnk6"><path d="M233,412.6969 C233,434.7169 233,460.9569 233,482.9569" fill="none" id="ChoosingTransportation-to-SelectDestination" style="stroke:#181818;stroke-width:1;"/><polygon fill="#181818" points="233,488.9569,237,479.9569,233,483.9569,229,479.9569,233,488.9569" style="stroke:#181818;stroke-width:1;"/><text fill="#000000" font-family="sans-serif" font-size="13" lengthAdjust="spacing" textLength="151.9438" x="234" y="455.3638">transportation selected</text></g><!--link ChoosingTransportation to CancelTransaction--><g class="link" data-entity-1="ent0004" data-entity-2="ent0019" data-link-type="dependency" data-source-line="19" id="lnk7"><path d="M138.7,402.4169 C76.34,417.7169 6,449.1869 6,513.2969 C6,513.2969 6,513.2969 6,1023.2969 C6,1098.6969 94.4237,1127.6882 164.8037,1139.5682" fill="none" id="ChoosingTransportation-to-CancelTransaction" style="stroke:#181818;stroke-width:1;"/><polygon fill="#181818" points="170.72,1140.5669,162.5113,1135.1247,165.7897,1139.7347,161.1798,1143.0131,170.72,1140.5669" style="stroke:#181818;stroke-width:1;"/><text fill="#000000" font-family="sans-serif" font-size="13" lengthAdjust="spacing" textLength="97.6333" x="7" y="772.8638">cancel pressed</text></g><!--link SelectDestination to SelectPaymentMethod--><g class="link" data-entity-1="ent0005" data-entity-2="ent0006" data-link-type="dependency" data-source-line="24" id="lnk8"><path d="M265.21,539.6969 C294.28,561.7169 332.0468,590.3345 361.0968,612.3345" fill="none" id="SelectDestination-to-SelectPaymentMethod" style="stroke:#181818;stroke-width:1;"/><polygon fill="#181818" points="365.88,615.9569,361.1202,607.3346,361.894,612.9382,356.2904,613.7121,365.88,615.9569" style="stroke:#181818;stroke-width:1;"/><text fill="#000000" font-family="sans-serif" font-size="13" lengthAdjust="spacing" textLength="142.7588" x="327" y="582.3638">destination confirmed</text></g><!--link SelectDestination to CancelTransaction--><g class="link" data-entity-1="ent0005" data-entity-2="ent0019" data-link-type="dependency" data-source-line="25" id="lnk9"><path d="M207.61,539.5469 C185.85,563.0369 158,600.8169 158,640.2969 C158,640.2969 158,640.2969 158,1023.2969 C158,1064.1669 185.4005,1097.0718 210.7705,1120.0218" fill="none" id="SelectDestination-to-CancelTransaction" style="stroke:#181818;stroke-width:1;"/><polygon fill="#181818" points="215.22,1124.0469,211.2291,1115.0428,211.512,1120.6926,205.8623,1120.9756,215.22,1124.0469" style="stroke:#181818;stroke-width:1;"/><text fill="#000000" font-family="sans-serif" font-size="13" lengthAdjust="spacing" textLength="97.6333" x="159" y="836.3638">cancel pressed</text></g><!--link SelectPaymentMethod to PayByCreditCard--><g class="link" data-entity-1="ent0006" data-entity-2="ent0007" data-link-type="dependency" data-source-line="30" id="lnk10"><path d="M422.98,666.6969 C445.54,688.7169 474.2572,716.765 496.7872,738.765" fill="none" id="SelectPaymentMethod-to-PayByCreditCard" style="stroke:#181818;stroke-width:1;"/><polygon fill="#181818" points="501.08,742.9569,497.4353,733.8072,497.5026,739.4637,491.8462,739.531,501.08,742.9569" style="stroke:#181818;stroke-width:1;"/><text fill="#000000" font-family="sans-serif" font-size="13" lengthAdjust="spacing" textLength="120.4912" x="471" y="709.3638">choose credit card</text></g><!--link SelectPaymentMethod to PayByQRWallet--><g class="link" data-entity-1="ent0006" data-entity-2="ent0009" data-link-type="dependency" data-source-line="31" id="lnk11"><path d="M487.11,659.6169 C523.07,668.2569 564.39,680.3369 600,696.2969 C627.64,708.6869 651.322,724.2081 672.112,739.4581" fill="none" id="SelectPaymentMethod-to-PayByQRWallet" style="stroke:#181818;stroke-width:1;"/><polygon fill="#181818" points="676.95,743.0069,672.0589,734.4584,672.9183,740.0496,667.3272,740.909,676.95,743.0069" style="stroke:#181818;stroke-width:1;"/><text fill="#000000" font-family="sans-serif" font-size="13" lengthAdjust="spacing" textLength="169.5396" x="633" y="709.3638">choose QR / Digital Wallet</text></g><!--link SelectPaymentMethod to CancelTransaction--><g class="link" data-entity-1="ent0006" data-entity-2="ent0019" data-link-type="dependency" data-source-line="32" id="lnk12"><path d="M386.17,666.7069 C366.63,707.8469 327.47,793.9769 304,870.2969 C275.74,962.1869 257.7784,1069.4545 250.3984,1118.1845" fill="none" id="SelectPaymentMethod-to-CancelTransaction" style="stroke:#181818;stroke-width:1;"/><polygon fill="#181818" points="249.5,1124.1169,254.8026,1115.8173,250.2487,1119.1732,246.8928,1114.6194,249.5,1124.1169" style="stroke:#181818;stroke-width:1;"/><text fill="#000000" font-family="sans-serif" font-size="13" lengthAdjust="spacing" textLength="97.6333" x="305" y="899.8638">cancel pressed</text></g><!--link PayByCreditCard to Verification--><g class="link" data-entity-1="ent0007" data-entity-2="ent0008" data-link-type="dependency" data-source-line="39" id="lnk13"><path d="M527.37,793.6969 C528.6,815.7169 530.0624,841.9664 531.3024,863.9664" fill="none" id="PayByCreditCard-to-Verification" style="stroke:#181818;stroke-width:1;"/><polygon fill="#181818" points="531.64,869.9569,535.1272,860.746,531.3586,864.9648,527.1399,861.1962,531.64,869.9569" style="stroke:#181818;stroke-width:1;"/><text fill="#000000" font-family="sans-serif" font-size="13" lengthAdjust="spacing" textLength="92.6187" x="531" y="836.3638">send card info</text></g><!--link Verification to ChoosingTicketType--><g class="link" data-entity-1="ent0008" data-entity-2="ent0012" data-link-type="dependency" data-source-line="45" id="lnk14"><path d="M548.12,920.6469 C559.33,936.5469 576.08,956.3169 596,967.2969 C637.57,990.2169 754.9299,1005.3289 838.1999,1013.6689" fill="none" id="Verification-to-ChoosingTicketType" style="stroke:#181818;stroke-width:1;"/><polygon fill="#181818" points="844.17,1014.2669,835.6134,1009.3899,839.1949,1013.7686,834.8162,1017.35,844.17,1014.2669" style="stroke:#181818;stroke-width:1;"/><text fill="#000000" font-family="sans-serif" font-size="13" lengthAdjust="spacing" textLength="104.0698" x="597" y="963.3638">verified success</text></g><!--link Verification to PaymentFailed--><g class="link" data-entity-1="ent0008" data-entity-2="ent0011" data-link-type="dependency" data-source-line="46" id="lnk15"><path d="M482.87,919.2169 C469.12,927.4269 455.22,937.8069 445,950.2969 C434.03,963.7069 428.9551,976.3561 425.1651,991.0861" fill="none" id="Verification-to-PaymentFailed" style="stroke:#181818;stroke-width:1;"/><polygon fill="#181818" points="423.67,996.8969,429.7865,989.1775,424.9159,992.0546,422.0388,987.184,423.67,996.8969" style="stroke:#181818;stroke-width:1;"/><text fill="#000000" font-family="sans-serif" font-size="13" lengthAdjust="spacing" textLength="113.001" x="446" y="963.3638">verification failed</text></g><!--link PayByQRWallet to DisplayQRCode--><g class="link" data-entity-1="ent0009" data-entity-2="ent0010" data-link-type="dependency" data-source-line="53" id="lnk16"><path d="M716,793.6969 C723.23,815.7169 731.9291,842.256 739.1491,864.256" fill="none" id="PayByQRWallet-to-DisplayQRCode" style="stroke:#181818;stroke-width:1;"/><polygon fill="#181818" points="741.02,869.9569,742.0142,860.1583,739.4609,865.2062,734.4131,862.6529,741.02,869.9569" style="stroke:#181818;stroke-width:1;"/></g><!--link DisplayQRCode to ChoosingTicketType--><g class="link" data-entity-1="ent0010" data-entity-2="ent0012" data-link-type="dependency" data-source-line="59" id="lnk17"><path d="M813.47,911.9469 C837.91,920.2769 864.72,932.5869 885,950.2969 C899.39,962.8569 907.3438,976.4075 913.9038,991.6175" fill="none" id="DisplayQRCode-to-ChoosingTicketType" style="stroke:#181818;stroke-width:1;"/><polygon fill="#181818" points="916.28,997.1269,916.3887,987.2786,914.2998,992.5357,909.0428,990.4469,916.28,997.1269" style="stroke:#181818;stroke-width:1;"/><text fill="#000000" font-family="sans-serif" font-size="13" lengthAdjust="spacing" textLength="132.9961" x="901" y="963.3638">QR scanned success</text></g><!--link DisplayQRCode to PaymentFailed--><g class="link" data-entity-1="ent0010" data-entity-2="ent0011" data-link-type="dependency" data-source-line="60" id="lnk18"><path d="M741.67,920.7369 C735.69,936.4669 725.61,956.0069 710,967.2969 C674.24,993.1469 561.4506,1008.0238 487.1606,1015.4038" fill="none" id="DisplayQRCode-to-PaymentFailed" style="stroke:#181818;stroke-width:1;"/><polygon fill="#181818" points="481.19,1015.9969,490.5413,1019.0876,486.1655,1015.5026,489.7505,1011.1268,481.19,1015.9969" style="stroke:#181818;stroke-width:1;"/><text fill="#000000" font-family="sans-serif" font-size="13" lengthAdjust="spacing" textLength="133.5801" x="727" y="963.3638">timeout / scan failed</text></g><!--link PaymentFailed to SelectPaymentMethod--><g class="link" data-entity-1="ent0011" data-entity-2="ent0006" data-link-type="dependency" data-source-line="67" id="lnk19"><path d="M417.67,997.2169 C413.89,929.0069 403.4717,741.0277 399.6817,672.5677" fill="none" id="PaymentFailed-to-SelectPaymentMethod" style="stroke:#181818;stroke-width:1;"/><polygon fill="#181818" points="399.35,666.5769,395.8536,675.7842,399.6264,671.5692,403.8414,675.342,399.35,666.5769" style="stroke:#181818;stroke-width:1;"/><text fill="#000000" font-family="sans-serif" font-size="13" lengthAdjust="spacing" textLength="93.52" x="410" y="836.3638">retry payment</text></g><!--link PaymentFailed to CancelTransaction--><g class="link" data-entity-1="ent0011" data-entity-2="ent0019" data-link-type="dependency" data-source-line="68" id="lnk20"><path d="M385.23,1047.6969 C354.75,1069.7169 315.004,1098.4438 284.544,1120.4438" fill="none" id="PaymentFailed-to-CancelTransaction" style="stroke:#181818;stroke-width:1;"/><polygon fill="#181818" points="279.68,1123.9569,289.318,1121.9299,283.7333,1121.0293,284.6339,1115.4446,279.68,1123.9569" style="stroke:#181818;stroke-width:1;"/><text fill="#000000" font-family="sans-serif" font-size="13" lengthAdjust="spacing" textLength="97.6333" x="344" y="1090.3638">cancel pressed</text></g><!--link ChoosingTicketType to OnlineTicket--><g class="link" data-entity-1="ent0012" data-entity-2="ent0013" data-link-type="dependency" data-source-line="75" id="lnk21"><path d="M1005.9,1042.4869 C1027.57,1050.5469 1049.74,1061.7769 1067,1077.2969 C1080.87,1089.7769 1088.0464,1103.2103 1093.6864,1118.4403" fill="none" id="ChoosingTicketType-to-OnlineTicket" style="stroke:#181818;stroke-width:1;"/><polygon fill="#181818" points="1095.77,1124.0669,1096.3956,1114.2379,1094.0336,1119.3781,1088.8935,1117.0161,1095.77,1124.0669" style="stroke:#181818;stroke-width:1;"/><text fill="#000000" font-family="sans-serif" font-size="13" lengthAdjust="spacing" textLength="123.0239" x="1082" y="1090.3638">select online ticket</text></g><!--link ChoosingTicketType to PaperTicket--><g class="link" data-entity-1="ent0012" data-entity-2="ent0014" data-link-type="dependency" data-source-line="76" id="lnk22"><path d="M928.71,1047.6969 C932.06,1069.7169 936.0594,1096.0248 939.3994,1118.0248" fill="none" id="ChoosingTicketType-to-PaperTicket" style="stroke:#181818;stroke-width:1;"/><polygon fill="#181818" points="940.3,1123.9569,942.9038,1114.4584,939.5495,1119.0135,934.9944,1115.6592,940.3,1123.9569" style="stroke:#181818;stroke-width:1;"/><text fill="#000000" font-family="sans-serif" font-size="13" lengthAdjust="spacing" textLength="121.1831" x="937" y="1090.3638">select paper ticket</text></g><!--link OnlineTicket to CompleteTransaction--><g class="link" data-entity-1="ent0013" data-entity-2="ent0015" data-link-type="dependency" data-source-line="88" id="lnk23"><path d="M1093.8,1174.7569 C1087.05,1192.7069 1080.0339,1211.3716 1073.2839,1229.3016" fill="none" id="OnlineTicket-to-CompleteTransaction" style="stroke:#181818;stroke-width:1;"/><polygon fill="#181818" points="1071.17,1234.9169,1078.0844,1227.9033,1072.9316,1230.2375,1070.5974,1225.0847,1071.17,1234.9169" style="stroke:#181818;stroke-width:1;"/></g><!--link PaperTicket to CompleteTransaction--><g class="link" data-entity-1="ent0014" data-entity-2="ent0015" data-link-type="dependency" data-source-line="89" id="lnk24"><path d="M970.48,1174.7569 C989.92,1192.7069 1011.7816,1212.9167 1031.2016,1230.8467" fill="none" id="PaperTicket-to-CompleteTransaction" style="stroke:#181818;stroke-width:1;"/><polygon fill="#181818" points="1035.61,1234.9169,1031.7109,1225.8727,1031.9363,1231.5251,1026.284,1231.7506,1035.61,1234.9169" style="stroke:#181818;stroke-width:1;"/></g><!--link CompleteTransaction to PrintTicket--><g class="link" data-entity-1="ent0015" data-entity-2="ent0016" data-link-type="dependency" data-source-line="96" id="lnk25"><path d="M1093.77,1285.7769 C1103.83,1294.4469 1114.52,1304.6869 1123,1315.2969 C1134.41,1329.5769 1141.6701,1342.2691 1148.6301,1356.6091" fill="none" id="CompleteTransaction-to-PrintTicket" style="stroke:#181818;stroke-width:1;"/><polygon fill="#181818" points="1151.25,1362.0069,1150.9188,1352.1636,1149.0668,1357.5087,1143.7217,1355.6567,1151.25,1362.0069" style="stroke:#181818;stroke-width:1;"/><text fill="#000000" font-family="sans-serif" font-size="13" lengthAdjust="spacing" textLength="96.8208" x="1136" y="1328.3638">paper selected</text></g><!--link CompleteTransaction to SendETicket--><g class="link" data-entity-1="ent0015" data-entity-2="ent0017" data-link-type="dependency" data-source-line="97" id="lnk26"><path d="M1036.83,1285.7569 C1029.65,1294.3469 1022.76,1304.5469 1019,1315.2969 C1013.78,1330.2269 1013.9522,1342.0745 1016.5122,1356.0945" fill="none" id="CompleteTransaction-to-SendETicket" style="stroke:#181818;stroke-width:1;"/><polygon fill="#181818" points="1017.59,1361.9969,1019.9083,1352.4248,1016.6919,1357.0782,1012.0384,1353.8618,1017.59,1361.9969" style="stroke:#181818;stroke-width:1;"/><text fill="#000000" font-family="sans-serif" font-size="13" lengthAdjust="spacing" textLength="98.6616" x="1020" y="1328.3638">online selected</text></g><!--link PrintTicket to Finish--><g class="link" data-entity-1="ent0016" data-entity-2="ent0018" data-link-type="dependency" data-source-line="104" id="lnk27"><path d="M1162,1412.7569 C1162,1430.7069 1162,1448.9869 1162,1466.9169" fill="none" id="PrintTicket-to-Finish" style="stroke:#181818;stroke-width:1;"/><polygon fill="#181818" points="1162,1472.9169,1166,1463.9169,1162,1467.9169,1158,1463.9169,1162,1472.9169" style="stroke:#181818;stroke-width:1;"/></g><!--link SendETicket to Finish--><g class="link" data-entity-1="ent0017" data-entity-2="ent0018" data-link-type="dependency" data-source-line="111" id="lnk28"><path d="M1054.97,1412.7569 C1077.7,1430.7069 1103.7216,1451.2679 1126.4216,1469.1979" fill="none" id="SendETicket-to-Finish" style="stroke:#181818;stroke-width:1;"/><polygon fill="#181818" points="1131.13,1472.9169,1126.5467,1464.1994,1127.2063,1469.8177,1121.5881,1470.4773,1131.13,1472.9169" style="stroke:#181818;stroke-width:1;"/></g><!--link Finish to Idle--><g class="link" data-entity-1="ent0018" data-entity-2="ent0002" data-link-type="dependency" data-source-line="118" id="lnk29"><path d="M1192.85,1485.3569 C1228.7,1469.2269 1283,1436.7869 1283,1388.2969 C1283,275.2969 1283,275.2969 1283,275.2969 C1283,193.0169 1166.235,164.0731 1112.095,154.8631" fill="none" id="Finish-to-Idle" style="stroke:#181818;stroke-width:1;"/><polygon fill="#181818" points="1106.18,153.8569,1114.3817,159.3096,1111.1092,154.6954,1115.7234,151.4229,1106.18,153.8569" style="stroke:#181818;stroke-width:1;"/></g><!--link CancelTransaction to Idle--><g class="link" data-entity-1="ent0019" data-entity-2="ent0002" data-link-type="dependency" data-source-line="125" id="lnk30"><path d="M321,1145.8469 C516.51,1139.1169 1028.45,1119.1969 1055,1094.2969 C1119.73,1033.5769 1081,985.0569 1081,896.2969 C1081,275.2969 1081,275.2969 1081,275.2969 C1081,240.3569 1081,205.9269 1081,180.7269" fill="none" id="CancelTransaction-to-Idle" style="stroke:#181818;stroke-width:1;"/><polygon fill="#181818" points="1081,174.7269,1077,183.7269,1081,179.7269,1085,183.7269,1081,174.7269" style="stroke:#181818;stroke-width:1;"/></g><?plantuml-src bLLDRniX4BtpApXNidhFeOVQZTH3L2UnaaFL0uAnZSB22aWbAyf_x_2vuDsDcXkycVUODpkmNde5z23v2tZw15f8VQ9tZ9-b1hgXZvvve3l9JfODXFp-yeTkDj_eJw6041U3OKtVo3iXSHN2oBB-O9bsZ7jfDBsXU-OSw1DOEbh0fKj9HMJ6Y88pD8XlpyOuh3BYex78nr0HMeuckPLOh1WKSBy3vwLckMJVfxcO0k8ZcItJ75Jld4SisnRLyEp0v7W6JzNjsMK0xU_0dur0OT5aSQEFqWwelwpmsSBwivhI-a2GHkJxPMj1IBzbDXJ6GuE0yeZXCLPyJBv_U6PAuVnLwlq3_OfJTvAUAPg2gnB_OorxkoxrZGHZrsWGVG8hZvANKS3H5T48bVfeYboNbBGwg9lMUCCEbn5Gxc_C0a7TA-TOufoMRTuogK1KHauuHhHtLNlOUAfOKDn9Dog6sDQ8UdSxC5DxRDK3VYA7RTQDYpdpseQN0vXNZnytS1UCDDdLI8EjNmOBtbxecD05rYUcPC5kgcKX4AH_QOMFPNv2R_8xGKr4qN60rwXxDeAzPeu1BCHIL7T8AgSqRP98EEboetapZ3W7qDWdBMyjftPa7YijMOX4OrPgNuqbHzC3ka9wn5lsev9o0okh6cwayumqID2vbLgwCvbUj4as4LfaWP2sEJTlfhzUwSbie797PdYX_WC0?></g></svg>